<?xml version="1.0" encoding="UTF-8" standalone="no"?><svg xmlns="http://www.w3.org/2000/svg" xmlns:xlink="http://www.w3.org/1999/xlink" contentScriptType="application/ecmascript" contentStyleType="text/css" height="535px" preserveAspectRatio="none" style="width:893px;height:535px;background:#FEFEFE;" version="1.1" viewBox="0 0 893 535" width="893px" zoomAndPan="magnify"><defs><filter height="300%" id="f1xgdoyq6rkh36" width="300%" x="-1" y="-1"><feGaussianBlur result="blurOut" stdDeviation="2.0"/><feColorMatrix in="blurOut" result="blurOut2" type="matrix" values="0 0 0 0 0 0 0 0 0 0 0 0 0 0 0 0 0 0 .4 0"/><feOffset dx="4.0" dy="4.0" in="blurOut2" result="blurOut3"/><feBlend in="SourceGraphic" in2="blurOut3" mode="normal"/></filter></defs><g><text fill="#000000" font-family="sans-serif" font-size="18" lengthAdjust="spacingAndGlyphs" textLength="200" x="349.5" y="16.708">ibn_attitude Data Flow</text><!--MD5=[d90b76233c116de50efdb789cae7edae]
cluster Hardware--><polygon fill="#FEFEFE" filter="url(#f1xgdoyq6rkh36)" points="137,400.9531,220,400.9531,227,423.25,279,423.25,279,523.9531,137,523.9531,137,400.9531" style="stroke: #000000; stroke-width: 1.5;"/><line style="stroke: #000000; stroke-width: 1.5;" x1="137" x2="227" y1="423.25" y2="423.25"/><text fill="#000000" font-family="sans-serif" font-size="14" font-weight="bold" lengthAdjust="spacingAndGlyphs" textLength="77" x="141" y="415.9482">Hardware</text><!--MD5=[e0648b92fd634e7ae4ff8ddb03858b13]
cluster ROS 2 Nodes--><polygon fill="#FEFEFE" filter="url(#f1xgdoyq6rkh36)" points="22,66.4531,130,66.4531,137,88.75,327,88.75,327,351.9531,22,351.9531,22,66.4531" style="stroke: #000000; stroke-width: 1.5;"/><line style="stroke: #000000; stroke-width: 1.5;" x1="22" x2="137" y1="88.75" y2="88.75"/><text fill="#000000" font-family="sans-serif" font-size="14" font-weight="bold" lengthAdjust="spacingAndGlyphs" textLength="102" x="26" y="81.4482">ROS 2 Nodes</text><!--MD5=[c2b667ed8c89000247b42d81fd4e7dcb]
cluster ROS 2 Topics--><polygon fill="#FEFEFE" filter="url(#f1xgdoyq6rkh36)" points="396,237.4531,506,237.4531,513,259.75,720,259.75,720,343.4531,396,343.4531,396,237.4531" style="stroke: #000000; stroke-width: 1.5;"/><line style="stroke: #000000; stroke-width: 1.5;" x1="396" x2="513" y1="259.75" y2="259.75"/><text fill="#000000" font-family="sans-serif" font-size="14" font-weight="bold" lengthAdjust="spacingAndGlyphs" textLength="104" x="400" y="252.4482">ROS 2 Topics</text><!--MD5=[e9228ba5afcea0eaaa882e72672b600b]
entity pixhawk--><rect fill="#FEFECE" filter="url(#f1xgdoyq6rkh36)" height="52.5938" style="stroke: #A80036; stroke-width: 1.5;" width="109" x="153.5" y="454.9531"/><rect fill="#FEFECE" height="5" style="stroke: #A80036; stroke-width: 1.5;" width="10" x="148.5" y="459.9531"/><rect fill="#FEFECE" height="5" style="stroke: #A80036; stroke-width: 1.5;" width="10" x="148.5" y="497.5469"/><text fill="#000000" font-family="sans-serif" font-size="14" lengthAdjust="spacingAndGlyphs" textLength="55" x="163.5" y="477.9482">Pixhawk</text><text fill="#000000" font-family="sans-serif" font-size="14" lengthAdjust="spacingAndGlyphs" textLength="89" x="163.5" y="494.2451">(ArduCopter)</text><!--MD5=[3622bf3bd56ba4b9a8e1a8c891f9b023]
entity att_node--><rect fill="#FEFECE" filter="url(#f1xgdoyq6rkh36)" height="52.5938" style="stroke: #A80036; stroke-width: 1.5;" width="126" x="185" y="120.4531"/><rect fill="#FEFECE" height="5" style="stroke: #A80036; stroke-width: 1.5;" width="10" x="180" y="125.4531"/><rect fill="#FEFECE" height="5" style="stroke: #A80036; stroke-width: 1.5;" width="10" x="180" y="163.0469"/><text fill="#000000" font-family="sans-serif" font-size="14" lengthAdjust="spacingAndGlyphs" textLength="106" x="195" y="143.4482">pixhawk_bridge</text><text fill="#000000" font-family="sans-serif" font-size="14" lengthAdjust="spacingAndGlyphs" textLength="105" x="195" y="159.7451">(Attitude Node)</text><!--MD5=[7a11793026259a3d61805d235374c616]
entity ibn_algo--><rect fill="#FEFECE" filter="url(#f1xgdoyq6rkh36)" height="36.2969" style="stroke: #A80036; stroke-width: 1.5;" width="112" x="38" y="128.9531"/><rect fill="#FEFECE" height="5" style="stroke: #A80036; stroke-width: 1.5;" width="10" x="33" y="133.9531"/><rect fill="#FEFECE" height="5" style="stroke: #A80036; stroke-width: 1.5;" width="10" x="33" y="155.25"/><text fill="#000000" font-family="sans-serif" font-size="14" lengthAdjust="spacingAndGlyphs" textLength="92" x="48" y="151.9482">IBN Algorithm</text><!--MD5=[e1286a8039577f132c18f18de1ecf6ef]
entity gps_node--><rect fill="#FEFECE" filter="url(#f1xgdoyq6rkh36)" height="52.5938" style="stroke: #A80036; stroke-width: 1.5;" width="111" x="89.5" y="282.9531"/><rect fill="#FEFECE" height="5" style="stroke: #A80036; stroke-width: 1.5;" width="10" x="84.5" y="287.9531"/><rect fill="#FEFECE" height="5" style="stroke: #A80036; stroke-width: 1.5;" width="10" x="84.5" y="325.5469"/><text fill="#000000" font-family="sans-serif" font-size="14" lengthAdjust="spacingAndGlyphs" textLength="91" x="99.5" y="305.9482">gps_injection</text><text fill="#000000" font-family="sans-serif" font-size="14" lengthAdjust="spacingAndGlyphs" textLength="80" x="99.5" y="322.2451">(GPS Inject)</text><!--MD5=[abdb10e3d47cd2316d4b85e112fb49a2]
entity att_topic--><rect fill="#FEFECE" filter="url(#f1xgdoyq6rkh36)" height="36.2969" style="stroke: #A80036; stroke-width: 1.5;" width="129" x="574.5" y="291.4531"/><rect fill="#FEFECE" height="5" style="stroke: #A80036; stroke-width: 1.5;" width="10" x="569.5" y="296.4531"/><rect fill="#FEFECE" height="5" style="stroke: #A80036; stroke-width: 1.5;" width="10" x="569.5" y="317.75"/><text fill="#000000" font-family="sans-serif" font-size="14" lengthAdjust="spacingAndGlyphs" textLength="109" x="584.5" y="314.4482">mavlink/attitude</text><!--MD5=[1bb55b74c8a48549fea45ddf65f13187]
entity alt_topic--><rect fill="#FEFECE" filter="url(#f1xgdoyq6rkh36)" height="36.2969" style="stroke: #A80036; stroke-width: 1.5;" width="127" x="412.5" y="291.4531"/><rect fill="#FEFECE" height="5" style="stroke: #A80036; stroke-width: 1.5;" width="10" x="407.5" y="296.4531"/><rect fill="#FEFECE" height="5" style="stroke: #A80036; stroke-width: 1.5;" width="10" x="407.5" y="317.75"/><text fill="#000000" font-family="sans-serif" font-size="14" lengthAdjust="spacingAndGlyphs" textLength="107" x="422.5" y="314.4482">mavlink/altitude</text><path d="M298,445.9531 L298,477.4531 L262.79,481.4531 L298,485.4531 L298,516.4844 A0,0 0 0 0 298,516.4844 L428,516.4844 A0,0 0 0 0 428,516.4844 L428,455.9531 L418,445.9531 L298,445.9531 A0,0 0 0 0 298,445.9531 " fill="#FBFB77" filter="url(#f1xgdoyq6rkh36)" style="stroke: #A80036; stroke-width: 1.0;"/><path d="M418,445.9531 L418,455.9531 L428,455.9531 L418,445.9531 " fill="#FBFB77" style="stroke: #A80036; stroke-width: 1.0;"/><text fill="#000000" font-family="sans-serif" font-size="13" lengthAdjust="spacingAndGlyphs" textLength="109" x="304" y="463.02">Reads telemetry:</text><text fill="#000000" font-family="sans-serif" font-size="13" lengthAdjust="spacingAndGlyphs" textLength="99" x="304" y="478.1528">- roll, pitch, yaw</text><text fill="#000000" font-family="sans-serif" font-size="13" lengthAdjust="spacingAndGlyphs" textLength="94" x="304" y="493.2856">- angular rates</text><text fill="#000000" font-family="sans-serif" font-size="13" lengthAdjust="spacingAndGlyphs" textLength="57" x="304" y="508.4185">- altitude</text><path d="M487,119.4531 L487,174.8516 L657,174.8516 L657,129.4531 L647,119.4531 L487,119.4531 " fill="#FBFB77" filter="url(#f1xgdoyq6rkh36)" style="stroke: #A80036; stroke-width: 1.0;"/><path d="M647,119.4531 L647,129.4531 L657,129.4531 L647,119.4531 " fill="#FBFB77" style="stroke: #A80036; stroke-width: 1.0;"/><text fill="#000000" font-family="sans-serif" font-size="13" lengthAdjust="spacingAndGlyphs" textLength="131" x="493" y="136.52">Connects to Pixhawk</text><text fill="#000000" font-family="sans-serif" font-size="13" lengthAdjust="spacingAndGlyphs" textLength="86" x="493" y="151.6528">via serial port</text><text fill="#000000" font-family="sans-serif" font-size="13" lengthAdjust="spacingAndGlyphs" textLength="149" x="493" y="166.7856">Polls at configurable Hz</text><path d="M346.5,126.9531 L346.5,167.2188 L451.5,167.2188 L451.5,136.9531 L441.5,126.9531 L346.5,126.9531 " fill="#FBFB77" filter="url(#f1xgdoyq6rkh36)" style="stroke: #A80036; stroke-width: 1.0;"/><path d="M441.5,126.9531 L441.5,136.9531 L451.5,136.9531 L441.5,126.9531 " fill="#FBFB77" style="stroke: #A80036; stroke-width: 1.0;"/><text fill="#000000" font-family="sans-serif" font-size="13" lengthAdjust="spacingAndGlyphs" textLength="84" x="352.5" y="144.02">Processing &amp;</text><text fill="#000000" font-family="sans-serif" font-size="13" lengthAdjust="spacingAndGlyphs" textLength="47" x="352.5" y="159.1528">filtering</text><path d="M739,281.9531 L739,337.3516 L881,337.3516 L881,291.9531 L871,281.9531 L739,281.9531 " fill="#FBFB77" filter="url(#f1xgdoyq6rkh36)" style="stroke: #A80036; stroke-width: 1.0;"/><path d="M871,281.9531 L871,291.9531 L881,291.9531 L871,281.9531 " fill="#FBFB77" style="stroke: #A80036; stroke-width: 1.0;"/><text fill="#000000" font-family="sans-serif" font-size="13" lengthAdjust="spacingAndGlyphs" textLength="105" x="745" y="299.02">Injects GPS data</text><text fill="#000000" font-family="sans-serif" font-size="13" lengthAdjust="spacingAndGlyphs" textLength="101" x="745" y="314.1528">back to Pixhawk</text><text fill="#000000" font-family="sans-serif" font-size="13" lengthAdjust="spacingAndGlyphs" textLength="121" x="745" y="329.2856">for better accuracy</text><!--MD5=[e966ff91457fbc90482636d43e19a5f7]
link pixhawk to att_node--><path d="M221.55,449.8231 C229.41,431.2931 239.08,407.0531 246,384.9531 C268.3,313.7631 275.5,295.5731 284,221.4531 C284.86,213.9431 286.11,211.7031 284,204.4531 C281.34,195.3131 276.7,186.2431 271.62,178.1331 " fill="none" id="pixhawk-att_node" style="stroke: #A80036; stroke-width: 1.0;"/><polygon fill="#A80036" points="268.76,173.7331,270.2855,183.4631,271.4739,177.9325,277.0045,179.1209,268.76,173.7331" style="stroke: #A80036; stroke-width: 1.0;"/><polygon fill="#A80036" points="219.39,454.8931,226.6119,448.1965,221.3596,450.2974,219.2587,445.0451,219.39,454.8931" style="stroke: #A80036; stroke-width: 1.0;"/><text fill="#000000" font-family="sans-serif" font-size="13" lengthAdjust="spacingAndGlyphs" textLength="104" x="283" y="314.02">Serial (MAVLink)</text><!--MD5=[0c22b070d0595364584d6fd16ca1836d]
link att_node to att_topic--><path d="M311.08,169.1231 C317.12,170.9931 323.16,172.7931 329,174.4531 C429.28,202.9031 465.61,179.3231 557,229.4531 C583.43,243.9531 607.46,269.2031 622.58,287.2531 " fill="none" id="att_node-&gt;att_topic" style="stroke: #A80036; stroke-width: 1.0;"/><polygon fill="#A80036" points="625.85,291.2231,623.2238,281.7309,622.6745,287.361,617.0443,286.8117,625.85,291.2231" style="stroke: #A80036; stroke-width: 1.0;"/><text fill="#000000" font-family="sans-serif" font-size="13" lengthAdjust="spacingAndGlyphs" textLength="45" x="542" y="217.52">Publish</text><!--MD5=[884a4d931a1955921c4d22379dd9d038]
link att_topic to ibn_algo--><path d="M627.47,291.3831 C613.4,272.2331 587.67,242.1831 557,229.4531 C516.56,212.6631 203.01,239.2531 163,221.4531 C138.82,210.6931 119.14,187.0131 107.07,169.4131 " fill="none" id="att_topic-&gt;ibn_algo" style="stroke: #A80036; stroke-width: 1.0;"/><polygon fill="#A80036" points="104.17,165.0831,105.8572,174.7864,106.9534,169.2368,112.503,170.333,104.17,165.0831" style="stroke: #A80036; stroke-width: 1.0;"/><text fill="#000000" font-family="sans-serif" font-size="13" lengthAdjust="spacingAndGlyphs" textLength="63" x="164" y="217.52">Subscribe</text><!--MD5=[46d59192a5a57d456a63cc86950eb801]
link ibn_algo to gps_node--><path d="M81.82,165.0231 C72.69,180.0031 62.89,202.3231 70,221.4531 C78.2,243.5131 94.77,263.7231 110.26,279.0931 " fill="none" id="ibn_algo-&gt;gps_node" style="stroke: #A80036; stroke-width: 1.0;"/><polygon fill="#A80036" points="114.17,282.9031,110.5048,273.7616,110.5848,279.4179,104.9285,279.4979,114.17,282.9031" style="stroke: #A80036; stroke-width: 1.0;"/><text fill="#000000" font-family="sans-serif" font-size="13" lengthAdjust="spacingAndGlyphs" textLength="50" x="71" y="217.52">Process</text><!--MD5=[d5cf730db96f0a4c28d02477be9a0098]
link gps_node to alt_topic--><path d="M162.34,282.6131 C178.25,261.1131 204.1,233.3031 235.5,225.4531 C314.27,205.7631 403.74,257.5031 448.06,288.3631 " fill="none" id="gps_node-&gt;alt_topic" style="stroke: #A80036; stroke-width: 1.0;"/><polygon fill="#A80036" points="452.21,291.2831,447.1466,282.8355,448.1192,288.4081,442.5466,289.3808,452.21,291.2831" style="stroke: #A80036; stroke-width: 1.0;"/><text fill="#000000" font-family="sans-serif" font-size="13" lengthAdjust="spacingAndGlyphs" textLength="45" x="236.5" y="217.52">Publish</text><!--MD5=[1771620869b64067fe3608bdfb5ee8ad]
link gps_node to pixhawk--><path d="M154.57,336.2731 C165.87,366.7831 184.66,417.4731 196.68,449.9031 " fill="none" id="gps_node-&gt;pixhawk" style="stroke: #A80036; stroke-width: 1.0;"/><polygon fill="#A80036" points="198.55,454.9431,199.1879,445.1149,196.8195,450.2521,191.6823,447.8838,198.55,454.9431" style="stroke: #A80036; stroke-width: 1.0;"/><text fill="#000000" font-family="sans-serif" font-size="13" lengthAdjust="spacingAndGlyphs" textLength="65" x="172" y="381.02">Inject GPS</text><!--MD5=[e383e18a5ee02b4037eb5cea293949b7]
link att_node to GMN21--><path d="M263.46,120.0131 C280.11,94.2131 309.28,57.2231 346.5,43.4531 C390.27,27.2631 407.73,27.2631 451.5,43.4531 C492.11,58.4731 528.23,94.0031 550.09,119.2331 " fill="none" id="att_node-GMN21" style="stroke: #A80036; stroke-width: 1.0; stroke-dasharray: 7.0,7.0;"/><!--MD5=[2c788682ebe6a55dbbd58f9f76f09020]
link ibn_algo to GMN24--><path d="M102.54,128.9431 C115.83,103.4731 144.2,58.3631 184.5,43.4531 C236.6,24.1831 257.4,24.1831 309.5,43.4531 C348.49,57.8731 376,100.9431 389.5,126.7531 " fill="none" id="ibn_algo-GMN24" style="stroke: #A80036; stroke-width: 1.0; stroke-dasharray: 7.0,7.0;"/><!--MD5=[33fe2c74c518d8b38b753f387d07b0ec]
link gps_node to GMN27--><path d="M160.66,282.7931 C177.75,256.6231 207.77,218.3331 245.5,201.9531 C292.08,181.7331 655.59,182.5231 702.5,201.9531 C741.27,218.0131 773.35,255.5931 792.09,281.7631 " fill="none" id="gps_node-GMN27" style="stroke: #A80036; stroke-width: 1.0; stroke-dasharray: 7.0,7.0;"/><!--MD5=[b0f98bce42580f6abb1ccff2fa860b7b]
@startuml
skinparam backgroundColor #FEFEFE
skinparam componentStyle rectangle

title ibn_attitude Data Flow

package "Hardware" {
  [Pixhawk\n(ArduCopter)] as pixhawk
}

package "ROS 2 Nodes" {
  [pixhawk_bridge\n(Attitude Node)] as att_node
  [IBN Algorithm] as ibn_algo
  [gps_injection\n(GPS Inject)] as gps_node
}

package "ROS 2 Topics" {
  [mavlink/attitude] as att_topic
  [mavlink/altitude] as alt_topic
}

pixhawk <- -> att_node : Serial (MAVLink)

att_node - -> att_topic : Publish
att_topic - -> ibn_algo : Subscribe

ibn_algo - -> gps_node : Process
gps_node - -> alt_topic : Publish
gps_node - -> pixhawk : Inject GPS

note right of pixhawk
  Reads telemetry:
  - roll, pitch, yaw
  - angular rates
  - altitude
end note

note right of att_node
  Connects to Pixhawk
  via serial port
  Polls at configurable Hz
end note

note right of ibn_algo
  Processing &
  filtering
end note

note right of gps_node
  Injects GPS data
  back to Pixhawk
  for better accuracy
end note

@enduml

PlantUML version 1.2020.02(Sun Mar 01 05:22:07 EST 2020)
(GPL source distribution)
Java Runtime: OpenJDK Runtime Environment
JVM: OpenJDK 64-Bit Server VM
Java Version: 11.0.30+7-post-Ubuntu-1ubuntu122.04
Operating System: Linux
Default Encoding: UTF-8
Language: en
Country: US
--></g></svg>